<svg width="156" height="57" viewBox="0 0 156 57" fill="none" xmlns="http://www.w3.org/2000/svg">
<path d="M16.4211 33.8838L16.3889 33.2719C15.6723 33.6819 14.8652 33.9048 14.041 33.9205C13.0386 33.9205 12.2474 33.682 11.6674 33.2049C11.0875 32.7278 10.796 31.9941 10.7932 31.0039V0H0.0013251V31.8147C-0.0184583 33.3671 0.18337 34.9144 0.600632 36.4091C0.952521 37.6762 1.55127 38.8602 2.36204 39.8921C3.12721 40.8487 4.10811 41.6077 5.22326 42.1061C6.44277 42.6374 7.76113 42.8999 9.08977 42.8758C11.6316 42.9057 14.1437 42.3238 16.4168 41.1786L16.4211 33.8838Z" fill="#F47637"/>
<path d="M34.6668 33.2199C34.0671 33.6216 33.3765 33.8467 32.6667 33.8719C32.3742 33.8818 32.0828 33.8279 31.8109 33.7134C31.539 33.599 31.2923 33.4265 31.0864 33.2068C30.6748 32.7635 30.4691 32.0992 30.4691 31.2139V14.5967H20.0714V31.7485C20.0542 33.2982 20.2475 34.8425 20.6455 36.3343C20.9814 37.6131 21.555 38.8084 22.3328 39.8507C23.0679 40.8133 24.0067 41.58 25.0737 42.0892C26.2398 42.6317 27.5036 42.9001 28.7776 42.876C30.836 42.8981 32.8647 42.3575 34.6668 41.3068V33.2199Z" fill="#F47637"/>
<path d="M21.6576 9.3468C22.1562 9.85684 22.7487 10.2572 23.3996 10.5238C24.0897 10.8093 24.8266 10.9531 25.5694 10.9472C26.2716 10.9482 26.9674 10.8088 27.6189 10.5365C28.261 10.2715 28.8507 9.88613 29.3588 9.39973C29.8672 8.91065 30.2778 8.3222 30.567 7.66805C30.8735 6.97159 31.0273 6.2131 31.0173 5.44736C31.0145 4.77898 30.8822 4.11804 30.6281 3.50399C30.3661 2.85758 29.9926 2.2664 29.5259 1.75961C29.0352 1.228 28.4525 0.797103 27.8084 0.489429C27.105 0.157531 26.3398 -0.00942378 25.5673 0.000410549C24.8623 -6.38026e-05 24.1633 0.134867 23.5055 0.398401C22.1955 0.912217 21.1294 1.93569 20.533 3.25207C20.2216 3.93827 20.0635 4.68873 20.0705 5.44736C20.0637 6.18829 20.2089 6.92223 20.4963 7.60031C20.7751 8.25271 21.169 8.84509 21.6576 9.3468" fill="#F47637"/>
<path d="M66.5468 18.5428C65.6723 17.3194 64.5153 16.3181 63.1712 15.6214C61.7384 14.9151 60.1522 14.5641 58.5504 14.5991C56.3751 14.5991 54.4787 15.1327 52.8611 16.2C51.2436 17.2674 49.919 18.8974 48.8872 21.09V15.4061H38.3145V42.8775H49.4083V28.1444C49.5321 27.6026 49.7218 27.0774 49.9734 26.5804C50.2788 25.9523 50.6622 25.3641 51.1148 24.8293C51.5854 24.2689 52.1454 23.7877 52.7728 23.4045C53.3942 23.0176 54.1153 22.8146 54.8503 22.8194C55.3769 22.7945 55.9004 22.9116 56.3645 23.158C56.8286 23.4045 57.2157 23.771 57.4841 24.2181C57.7832 24.7081 57.9917 25.2464 58.1001 25.8082C58.2325 26.4701 58.2969 27.1435 58.2921 27.8181V42.8775H69.3308V28.9558C69.3521 26.9763 69.1147 25.0023 68.6243 23.0826C68.2196 21.4578 67.5146 19.9203 66.5446 18.5472" fill="#F47637"/>
<path d="M110.282 9.34679C110.822 9.85683 111.464 10.2572 112.169 10.5238C112.917 10.8094 113.715 10.9532 114.52 10.9472C115.28 10.9485 116.033 10.8091 116.738 10.5365C117.434 10.272 118.074 9.88661 118.625 9.39972C119.176 8.91064 119.621 8.32219 119.934 7.66804C120.266 6.97158 120.433 6.21309 120.422 5.44735C120.418 4.77884 120.274 4.11792 119.998 3.50398C119.715 2.85767 119.311 2.26648 118.806 1.7596C118.274 1.22799 117.643 0.797103 116.945 0.489428C116.183 0.157531 115.354 -0.00942377 114.518 0.000410549C113.753 -0.000324837 112.995 0.13461 112.282 0.3984C110.863 0.91268 109.709 1.9361 109.064 3.25206C108.726 3.93827 108.555 4.68873 108.563 5.44735C108.555 6.18828 108.713 6.92222 109.024 7.6003C109.326 8.2527 109.753 8.84508 110.282 9.34679" fill="#F47637"/>
<path d="M124.071 33.2872C123.457 33.65 122.758 33.8506 122.042 33.8698C121.729 33.88 121.417 33.8262 121.126 33.7117C120.835 33.5972 120.571 33.4246 120.35 33.2046C119.91 32.7612 119.689 32.0967 119.689 31.2112V14.5967H108.564V31.7525C108.545 33.3026 108.752 34.8472 109.178 36.3393C109.54 37.616 110.155 38.8092 110.987 39.85C111.774 40.8133 112.779 41.5803 113.922 42.089C115.17 42.6316 116.523 42.9001 117.887 42.876C120.04 42.893 122.161 42.3734 124.056 41.3651L124.071 33.2872Z" fill="#F47637"/>
<path d="M145.521 31.3141C145.278 32.0052 144.897 32.6425 144.4 33.1893C143.96 33.6679 143.421 34.0505 142.819 34.3123C142.252 34.5591 141.638 34.6876 141.017 34.6895C140.394 34.6866 139.778 34.5582 139.208 34.3123C138.602 34.056 138.062 33.6726 137.626 33.1893C137.137 32.6392 136.76 32.0027 136.516 31.3141C135.954 29.6092 135.954 27.775 136.516 26.07C136.758 25.3851 137.135 24.7532 137.626 24.2099C138.055 23.7458 138.578 23.374 139.162 23.1183C139.745 22.8626 140.378 22.7286 141.017 22.7247C141.638 22.7261 142.251 22.8531 142.819 23.0976C143.418 23.3594 143.956 23.7379 144.4 24.2099C144.898 24.7498 145.28 25.3825 145.521 26.07C146.083 27.775 146.083 29.6092 145.521 31.3141V31.3141ZM154.902 22.9926C154.205 21.3121 153.153 19.7939 151.815 18.5371C150.445 17.2713 148.832 16.2843 147.068 15.6333C145.127 14.9217 143.066 14.5706 140.993 14.5982C139.045 14.5867 137.109 14.8938 135.265 15.5068C133.5 16.0864 131.877 17.0177 130.499 18.2416C129.121 19.4656 128.018 20.9557 127.26 22.6176C126.435 24.3663 125.981 26.3915 125.896 28.6932C125.87 30.666 126.238 32.6249 126.98 34.4602C127.667 36.1495 128.714 37.6769 130.051 38.9413C131.419 40.216 133.039 41.2049 134.811 41.8473C136.777 42.5543 138.859 42.9029 140.954 42.876C142.157 42.8749 143.358 42.7586 144.538 42.5288C145.738 42.2971 146.907 41.9333 148.022 41.4444C149.148 40.9518 150.203 40.317 151.159 39.5564C152.137 38.7814 152.99 37.8659 153.687 36.8411C154.428 35.7301 154.996 34.5174 155.371 33.2429C155.806 31.7642 156.017 30.2315 155.999 28.6932C156.021 26.7409 155.648 24.8036 154.902 22.9926" fill="#F47637"/>
<path d="M93.6801 29.0754C93.6107 30.4553 93.0357 31.7661 92.0583 32.7723C91.586 33.2569 91.0227 33.6499 90.3986 33.9304C89.771 34.2179 89.085 34.3656 88.3908 34.3626C87.7545 34.3557 87.1254 34.2318 86.537 33.9974C85.9008 33.7517 85.3192 33.3901 84.8237 32.9322C84.2963 32.4402 83.8734 31.853 83.5788 31.2037C83.2468 30.4646 83.0818 29.6653 83.0947 28.8594C83.0903 27.438 83.6255 26.0646 84.5983 25.0004C85.0692 24.4965 85.6386 24.0881 86.2737 23.7991C86.9349 23.5005 87.6568 23.3491 88.3863 23.3562C89.0595 23.3549 89.7246 23.498 90.3339 23.7753C90.957 24.053 91.5207 24.4414 91.9959 24.9205C92.4849 25.4143 92.884 25.9849 93.176 26.608C93.4786 27.2484 93.6499 27.9396 93.6801 28.6433V29.0754ZM93.6801 14.7805V21.0464C93.1994 19.1856 92.0849 17.536 90.5168 16.3643C89.7379 15.7902 88.8645 15.3475 87.9335 15.0549C86.9404 14.745 85.9027 14.5904 84.8594 14.5969C83.2116 14.5988 81.5835 14.9436 80.0853 15.6081C78.5368 16.2891 77.1466 17.2666 75.9984 18.4817C74.7749 19.7811 73.8078 21.2868 73.1451 22.924C71.7252 26.5734 71.7117 30.5963 73.1072 34.2545C73.7511 35.8895 74.7018 37.3949 75.9114 38.6947C77.0606 39.9271 78.4544 40.9228 80.0095 41.6224C81.5454 42.3191 83.2213 42.6784 84.9174 42.6746C88.9329 42.6746 91.9698 41.3465 94.0282 38.6903C94.0661 39.0209 94.0951 39.3385 94.1085 39.6691C94.2156 42.2619 92.6116 44.8547 90.3383 45.935C87.262 47.3999 84.6452 47.2876 82.0842 47.0154C80.9316 46.8604 79.8004 46.5821 78.7111 46.1857C78.314 46.0344 77.9839 45.8335 77.6247 45.6671L77.531 45.6239V55.4808C79.9158 56.1182 82.6374 56.5503 84.759 56.5611C88.3908 56.5827 92.0784 56.0123 95.5563 54.2514C98.1106 52.955 99.6968 51.3453 101.093 49.7551C101.564 49.2192 103.19 47.0586 103.797 44.8439C103.871 44.5695 103.958 44.2951 104.02 44.012C104.254 43.0808 104.828 40.3389 104.913 35.7843V16.8656C104.89 15.4547 104.875 14.7805 104.875 14.7805H93.6801Z" fill="#F47637"/>
</svg>
